<svg width="125" height="125" viewBox="0 0 125 125" fill="none" xmlns="http://www.w3.org/2000/svg">
<circle cx="62.5" cy="62.5" r="62.5" fill="#111111"/>
<path fill-rule="evenodd" clip-rule="evenodd" d="M23.2501 29.7626C23.7808 29.9395 24.3114 29.9395 25.0189 30.1163C25.3727 30.1163 25.7264 30.4701 25.7264 30.8238C25.9033 31.5314 26.257 32.2389 26.4339 33.1232C26.6108 33.477 26.4339 33.8307 26.0802 33.6539C25.5495 33.477 25.0189 33.477 24.4883 33.3001C24.1345 33.3001 23.9576 32.9464 23.7808 32.5926C23.6039 31.8851 23.2501 31.0007 23.0733 30.2932C22.8964 29.9395 23.0733 29.5857 23.2501 29.7626Z" fill="white"/>
<path fill-rule="evenodd" clip-rule="evenodd" d="M25.1958 26.0482C25.7264 26.2251 26.4339 26.402 26.9646 26.5788C27.3183 26.5788 27.6721 27.1095 27.6721 27.4632C27.8489 27.9938 28.2027 28.7013 28.3796 29.4088C28.5564 29.7626 28.3796 29.9395 28.0258 29.9395C27.4952 29.7626 26.9646 29.5857 26.2571 29.5857C25.9033 29.5857 25.5496 29.232 25.5496 28.7013C25.3727 27.9938 25.0189 27.2863 24.842 26.402C24.6652 26.2251 24.842 25.8713 25.1958 26.0482Z" fill="white"/>
<path fill-rule="evenodd" clip-rule="evenodd" d="M28.5564 26.9326C29.0871 27.1094 29.7946 27.2863 30.3252 27.4632C30.6789 27.6401 31.0327 27.9938 31.0327 28.3476C31.3864 29.0551 31.5633 29.7626 31.9171 30.4701C32.0939 30.8238 31.9171 31.0007 31.5633 31.0007C31.0327 30.8238 30.3252 30.6469 29.7946 30.4701C29.4408 30.4701 29.0871 29.9394 29.0871 29.5857C28.9102 28.8782 28.5564 28.1707 28.3796 27.4632C28.2027 27.1094 28.3796 26.9326 28.5564 26.9326Z" fill="white"/>
<path fill-rule="evenodd" clip-rule="evenodd" d="M39.169 30.8239C39.6996 31.0007 40.4071 31.3545 40.9377 31.7082C41.2915 31.8851 41.6452 32.2389 41.6452 32.5926C41.8221 33.3001 41.999 33.8307 42.3527 34.5382C42.5296 34.892 42.3527 35.0689 41.999 34.892C41.4684 34.5382 40.7608 34.3614 40.2302 34.1845C39.8765 34.0076 39.5227 33.6539 39.5227 33.3001C39.3458 32.5926 39.169 32.062 38.8152 31.3545C38.8152 30.8239 38.9921 30.8239 39.169 30.8239Z" fill="white"/>
<path fill-rule="evenodd" clip-rule="evenodd" d="M26.6108 30.4701C27.1414 30.647 27.672 30.647 28.3795 30.8238C28.7333 30.8238 29.087 31.1776 29.087 31.7082C29.2639 32.4157 29.6177 33.1232 29.7945 33.8307C29.9714 34.1845 29.7945 34.3613 29.4408 34.3613C28.9102 34.1845 28.3795 34.0076 27.8489 34.0076C27.4952 34.0076 27.3183 33.6538 27.1414 33.3001C26.9645 32.5926 26.6108 31.8851 26.4339 31.0007C26.257 30.647 26.4339 30.2932 26.6108 30.4701Z" fill="white"/>
<path fill-rule="evenodd" clip-rule="evenodd" d="M29.9714 31.3545C30.5021 31.5314 31.2096 31.7082 31.7402 31.8851C32.094 31.8851 32.4477 32.2389 32.4477 32.5926C32.6246 33.3001 32.9783 34.0076 33.1552 34.7151C33.3321 35.0689 33.1552 35.2457 32.8015 35.2457C32.2708 35.0689 31.5633 34.892 31.0327 34.892C30.6789 34.892 30.3252 34.5382 30.3252 34.1845C30.1483 33.477 29.7946 32.7695 29.6177 32.062C29.6177 31.3545 29.7946 31.1776 29.9714 31.3545Z" fill="white"/>
<path fill-rule="evenodd" clip-rule="evenodd" d="M33.5089 32.2388C34.0396 32.4157 34.7471 32.5926 35.2777 32.7695C35.6314 32.9463 35.9852 33.3001 35.9852 33.6538C36.1621 34.3613 36.5158 35.0688 36.6927 35.5995C36.8696 35.9532 36.6927 36.1301 36.339 35.9532C35.8083 35.7763 35.1008 35.5995 34.5702 35.4226C34.2164 35.4226 33.8627 35.0688 33.8627 34.7151C33.6858 34.0076 33.3321 33.3001 33.1552 32.5926C32.9783 32.4157 33.1552 32.2388 33.5089 32.2388Z" fill="white"/>
<path fill-rule="evenodd" clip-rule="evenodd" d="M37.0465 33.477C37.5771 33.6538 38.2846 33.8307 38.8152 34.1845C39.169 34.3613 39.5227 34.7151 39.5227 35.0688C39.6996 35.7763 39.8765 36.307 40.2302 37.0145C40.4071 37.3682 40.2302 37.5451 39.8765 37.3682C39.3458 37.1913 38.6383 37.0145 38.1077 36.6607C37.754 36.4838 37.4002 36.1301 37.4002 35.7763C37.2233 35.0688 36.8696 34.3613 36.6927 33.8307C36.5158 33.477 36.6927 33.3001 37.0465 33.477Z" fill="white"/>
<path fill-rule="evenodd" clip-rule="evenodd" d="M40.584 34.892C41.1146 35.0688 41.8221 35.4226 42.3527 35.5995C42.7065 35.7763 43.0602 36.1301 43.0602 36.4838C43.2371 37.1913 43.414 37.722 43.7677 38.4295C43.9446 38.7832 43.7677 38.9601 43.414 38.7832C42.8834 38.4295 42.1759 38.2526 41.6452 38.0757C41.2915 37.8988 40.9377 37.5451 40.9377 37.1913C40.7609 36.4838 40.584 35.9532 40.2302 35.2457C40.0534 34.892 40.2302 34.7151 40.584 34.892Z" fill="white"/>
<path fill-rule="evenodd" clip-rule="evenodd" d="M34.924 36.4839C35.4546 36.6607 36.1621 36.8376 36.6927 37.0145C37.0465 37.1914 37.4002 37.5451 37.4002 37.722C37.5771 38.4295 37.9309 39.137 38.1077 39.6676C38.2846 40.0214 38.1077 40.1983 37.754 40.1983C37.2233 40.0214 36.5158 39.8445 35.9852 39.6676C35.6315 39.6676 35.2777 39.3139 35.2777 38.9601C35.1008 38.2526 34.7471 37.5451 34.5702 36.8376C34.3933 36.4839 34.5702 36.307 34.924 36.4839Z" fill="white"/>
<path fill-rule="evenodd" clip-rule="evenodd" d="M38.2846 37.5451C38.8152 37.722 39.5227 37.8989 40.0533 38.2526C40.4071 38.4295 40.7608 38.7832 40.7608 39.137C40.9377 39.8445 41.2915 40.3751 41.4683 41.0826C41.6452 41.4364 41.4683 41.6132 41.1146 41.4364C40.584 41.2595 39.8765 41.0826 39.3458 40.9057C38.9921 40.7289 38.6383 40.3751 38.6383 40.1982C38.4615 39.4907 38.1077 38.7832 37.9308 38.2526C37.9308 37.5451 38.1077 37.3682 38.2846 37.5451Z" fill="white"/>
<path fill-rule="evenodd" clip-rule="evenodd" d="M32.9783 39.8445C33.5089 40.0214 34.0396 40.0214 34.7471 40.1983C35.1008 40.1983 35.4546 40.552 35.4546 40.9058C35.6314 41.6133 35.9852 42.3208 36.1621 43.0283C36.339 43.382 36.1621 43.5589 35.8083 43.5589C35.2777 43.382 34.7471 43.382 34.2164 43.2052C33.8627 43.2052 33.6858 42.8514 33.5089 42.4977C33.3321 41.7902 32.9783 41.0827 32.8014 40.3752C32.4477 40.0214 32.6246 39.8445 32.9783 39.8445Z" fill="white"/>
<path fill-rule="evenodd" clip-rule="evenodd" d="M36.3389 40.552C36.8696 40.7289 37.5771 40.9058 38.1077 41.0826C38.4615 41.0826 38.8152 41.4364 38.8152 41.7901C38.9921 42.4977 39.3458 43.2052 39.5227 43.7358C39.6996 44.0895 39.5227 44.2664 39.169 44.2664C38.6383 44.0895 37.9308 43.9127 37.4002 43.9127C37.0464 43.9127 36.6927 43.5589 36.6927 43.2052C36.5158 42.4977 36.1621 41.7901 35.9852 41.0826C35.8083 40.7289 35.9852 40.552 36.3389 40.552Z" fill="white"/>
<path fill-rule="evenodd" clip-rule="evenodd" d="M39.6996 41.6133C40.2302 41.7901 40.9377 41.967 41.4684 42.1439C41.8221 42.3208 42.1759 42.6745 42.1759 43.0283C42.3527 43.7358 42.7065 44.2664 42.8834 44.9739C43.0602 45.3277 42.8834 45.5045 42.5296 45.3277C41.999 45.1508 41.2915 44.9739 40.7609 44.797C40.4071 44.6202 40.0534 44.4433 40.0534 44.0895C39.8765 43.382 39.5227 42.6745 39.3459 42.1439C39.3459 41.6133 39.3459 41.4364 39.6996 41.6133Z" fill="white"/>
<path fill-rule="evenodd" clip-rule="evenodd" d="M43.2371 42.8514C43.7677 43.0283 44.4753 43.382 45.0059 43.5589C45.3596 43.7358 45.7134 44.0895 45.7134 44.4433C45.8903 45.1508 46.0671 45.6814 46.4209 46.3889C46.5978 46.7427 46.4209 46.9195 46.0671 46.7427C45.5365 46.5658 44.829 46.212 44.2984 46.0352C43.9446 45.8583 43.5909 45.5045 43.5909 45.1508C43.414 44.4433 43.2371 43.9126 42.8834 43.2051C42.7065 42.8514 42.8834 42.6745 43.2371 42.8514Z" fill="white"/>
<path fill-rule="evenodd" clip-rule="evenodd" d="M43.2371 32.7694C43.9446 33.1232 44.4753 33.4769 45.1828 33.8307C45.5365 34.0076 45.8903 34.5382 46.0671 34.7151C46.244 35.4226 46.4209 35.9532 46.7746 36.6607C46.9515 37.0145 46.7746 37.0145 46.4209 36.8376C45.5365 36.4838 44.829 36.1301 44.2984 35.7763C43.9446 35.5994 43.5909 35.2457 43.5909 34.8919C43.414 34.1844 43.2371 33.6538 42.8834 32.9463C42.7065 32.7694 42.8834 32.5926 43.2371 32.7694Z" fill="white"/>
<path fill-rule="evenodd" clip-rule="evenodd" d="M44.4752 36.6607C45.1827 37.0145 45.7134 37.3682 46.4209 37.5451C46.7746 37.722 47.1284 38.2526 47.3053 38.4295C47.4821 39.137 47.659 39.6676 48.0128 40.3751C48.1896 40.7289 48.0128 40.7289 47.659 40.552C46.9515 40.1982 46.4209 39.8445 45.7134 39.6676C45.3596 39.4907 45.0059 39.137 45.0059 38.7832C44.4753 38.2526 44.2984 37.5451 44.1215 37.0145C43.9446 36.6607 44.1215 36.4839 44.4752 36.6607Z" fill="white"/>
<path fill-rule="evenodd" clip-rule="evenodd" d="M45.7134 40.552C46.4209 40.9058 46.9515 41.0827 47.659 41.4364C48.0128 41.6133 48.3665 41.967 48.5434 42.3208C48.7203 43.0283 48.8971 43.5589 49.2509 44.2664C49.4278 44.6202 49.2509 44.6202 48.8971 44.4433C48.1896 44.0895 47.659 43.7358 46.9515 43.5589C46.5977 43.382 46.244 43.0283 46.244 42.6745C46.0671 41.967 45.8902 41.4364 45.5365 40.7289C45.3596 40.552 45.5365 40.3751 45.7134 40.552Z" fill="white"/>
<path fill-rule="evenodd" clip-rule="evenodd" d="M47.1284 44.4433C47.8359 44.797 48.3665 44.9739 49.074 45.3277C49.4278 45.5045 49.7815 45.8583 49.9584 46.212C50.1353 46.9195 50.3121 47.4502 50.6659 48.1577C50.8428 48.5114 50.6659 48.5114 50.3122 48.3345C49.6046 47.9808 49.074 47.8039 48.3665 47.4502C48.0128 47.2733 47.659 46.9195 47.659 46.5658C47.4821 45.8583 47.3053 45.3277 46.9515 44.6202C46.5978 44.4433 46.7746 44.2664 47.1284 44.4433Z" fill="white"/>
<path fill-rule="evenodd" clip-rule="evenodd" d="M46.9515 34.892C47.659 35.2458 48.3665 35.7764 48.8971 36.1301C49.2509 36.307 49.6046 36.8376 49.7815 37.1914C49.9584 37.8989 50.1353 38.4295 50.489 39.137C50.6659 39.4908 50.489 39.4908 50.1353 39.3139C49.4278 38.7833 48.7203 38.4295 48.1896 38.0758C47.8359 37.8989 47.4821 37.3683 47.3052 37.1914C47.1284 36.4839 46.9515 35.9533 46.5977 35.2458C46.4209 34.7151 46.5977 34.7151 46.9515 34.892Z" fill="white"/>
<path fill-rule="evenodd" clip-rule="evenodd" d="M51.0196 37.5451C51.7271 38.0758 52.4346 38.7833 53.1422 39.3139C53.4959 39.6676 53.8497 40.1983 54.0265 40.3751C54.2034 40.9058 54.3803 41.6133 54.734 42.3208C54.9109 42.6745 54.5572 42.6745 54.2034 42.3208C53.4959 41.7902 52.7884 41.0827 52.0809 40.552C51.7271 40.1983 51.3734 39.8445 51.1965 39.4908C51.0196 38.7833 50.8428 38.2526 50.489 37.5451C50.489 37.3683 50.6659 37.1914 51.0196 37.5451Z" fill="white"/>
<path fill-rule="evenodd" clip-rule="evenodd" d="M55.4415 41.4364C56.3259 42.3208 57.2103 43.382 58.2716 44.797C58.8022 45.5045 63.2241 58.7702 63.2241 58.7702C63.2241 58.7702 59.5097 48.1577 59.1559 47.627C58.2716 46.3889 57.2103 45.3277 56.5028 44.4433C56.149 44.0895 55.7953 43.5589 55.6184 43.2052C55.4415 42.6745 55.2647 41.967 55.0878 41.4364C54.734 40.9058 55.0878 41.0826 55.4415 41.4364Z" fill="white"/>
<path fill-rule="evenodd" clip-rule="evenodd" d="M52.2578 41.2595C52.9653 41.7902 53.6728 42.3208 54.3803 43.0283C54.734 43.382 55.0878 43.9127 55.2647 44.0895C55.4415 44.797 55.6184 45.3277 55.9722 46.0352C56.149 46.3889 55.7953 46.3889 55.4415 46.0352C54.734 45.5046 54.0265 44.797 53.319 44.2664C52.9653 44.0895 52.6115 43.5589 52.4347 43.2052C52.2578 42.4977 52.0809 41.967 51.7272 41.2595C51.7272 41.0827 51.904 41.0827 52.2578 41.2595Z" fill="white"/>
<path fill-rule="evenodd" clip-rule="evenodd" d="M56.6797 45.1508C57.5641 46.0351 58.4485 47.0964 59.3328 48.3345C59.8635 48.8652 63.2241 58.7702 63.2241 58.7702C63.2241 58.7702 60.7478 51.5183 60.2172 50.9877C59.3328 49.9264 58.4485 48.8652 57.5641 48.1577C57.2103 47.8039 56.8566 47.2733 56.6797 46.9195C56.5028 46.212 56.3259 45.6814 56.1491 45.1508C55.9722 44.6201 56.3259 44.797 56.6797 45.1508Z" fill="white"/>
<path fill-rule="evenodd" clip-rule="evenodd" d="M49.6047 42.4976C50.3122 42.8514 50.8428 43.382 51.5503 43.7358C51.904 43.9126 52.2578 44.4433 52.4347 44.797C52.6115 45.5045 52.7884 46.0352 53.1422 46.7427C53.319 47.0964 53.1422 47.0964 52.7884 46.9195C52.0809 46.5658 51.3734 46.0352 50.8428 45.6814C50.489 45.5045 50.1353 45.1508 50.1353 44.797C49.9584 44.0895 49.7815 43.5589 49.4278 42.8514C49.074 42.4976 49.2509 42.3208 49.6047 42.4976Z" fill="white"/>
<path fill-rule="evenodd" clip-rule="evenodd" d="M53.4959 45.1508C54.2034 45.6814 54.9109 46.212 55.6184 46.9195C55.9722 47.2733 56.3259 47.8039 56.5028 47.9808C56.6797 48.6883 56.8565 49.2189 57.2103 49.9264C57.3872 50.2802 57.0334 50.2802 56.6797 49.9264C55.9722 49.3958 55.2647 48.8652 54.5572 48.3345C54.2034 48.1577 53.8497 47.627 53.6728 47.2733C53.4959 46.5658 53.319 46.0351 52.9653 45.3276C52.9653 44.9739 53.1422 44.797 53.4959 45.1508Z" fill="white"/>
<path fill-rule="evenodd" clip-rule="evenodd" d="M57.9178 48.8652C58.8022 49.5727 59.6866 50.6339 60.5709 51.6952C61.1016 52.2258 63.4009 58.7702 63.4009 58.7702C63.4009 58.7702 61.9859 55.0558 61.4553 54.5252C60.5709 53.464 59.6865 52.5796 58.979 51.8721C58.6253 51.5183 58.2715 50.9877 58.0947 50.6339C57.9178 50.1033 57.7409 49.3958 57.564 48.8652C57.2103 48.3346 57.564 48.5114 57.9178 48.8652Z" fill="white"/>
<path fill-rule="evenodd" clip-rule="evenodd" d="M50.8428 46.3889C51.5503 46.7427 52.0809 47.2733 52.7884 47.627C53.1422 47.8039 53.4959 48.3345 53.6728 48.6883C53.8497 49.3958 54.0265 49.9264 54.3803 50.6339C54.5572 50.9877 54.3803 50.9877 54.0265 50.8108C53.319 50.4571 52.6115 49.9264 52.0809 49.5727C51.7272 49.3958 51.3734 49.042 51.3734 48.6883C51.1965 47.9808 51.0196 47.4502 50.6659 46.7427C50.3121 46.3889 50.489 46.212 50.8428 46.3889Z" fill="white"/>
<path fill-rule="evenodd" clip-rule="evenodd" d="M54.9109 49.0421C55.6184 49.5727 56.3259 50.1033 57.0334 50.6339C57.3872 50.9877 57.7409 51.5183 57.9178 51.6952C58.0947 52.4027 58.2716 52.9333 58.6253 53.6408C58.8022 53.9946 58.4484 53.9946 58.0947 53.6408C57.3872 53.1102 56.6797 52.5796 55.9722 52.0489C55.6184 51.8721 55.2647 51.3414 55.0878 50.9877C54.9109 50.2802 54.7341 49.7496 54.3803 49.0421C54.2034 48.8652 54.5572 48.6883 54.9109 49.0421Z" fill="white"/>
<path fill-rule="evenodd" clip-rule="evenodd" d="M59.1559 52.4027C60.0403 53.1102 60.7478 53.9946 61.6322 55.0558C61.9859 55.5865 63.2241 58.5933 63.2241 58.5933C63.2241 58.5933 62.8703 58.2396 62.5166 57.709C61.6322 56.8246 60.9247 55.9402 60.0403 55.2327C59.6866 54.879 59.3328 54.3483 59.1559 54.1714C58.9791 53.6408 58.8022 52.9333 58.6253 52.4027C58.4484 52.0489 58.8022 52.0489 59.1559 52.4027Z" fill="white"/>
<path fill-rule="evenodd" clip-rule="evenodd" d="M54.3803 98.5673C54.9109 98.0366 55.4415 97.6829 55.9722 97.1523C56.149 96.9754 56.149 96.6216 55.9722 96.4448C55.4415 95.9141 55.0878 95.3835 54.5572 95.0298C54.3803 94.8529 54.2034 94.8529 53.8497 95.0298C53.319 95.5604 52.7884 95.9141 52.2578 96.2679C52.0809 96.4448 52.0809 96.6216 52.2578 96.7985C52.7884 97.3291 53.1422 97.8598 53.6728 98.3904C54.0265 98.7441 54.2034 98.7441 54.3803 98.5673ZM49.6046 87.7778C50.1353 87.2472 50.6659 86.8935 51.1965 86.3628C51.3734 86.186 51.3734 85.8322 51.1965 85.6553C50.8428 85.1247 50.3122 84.771 49.9584 84.2403C49.7815 84.0635 49.6047 84.0635 49.4278 84.2403C48.8971 84.5941 48.3665 85.1247 47.8359 85.4785C47.659 85.6553 47.659 85.8322 47.8359 86.0091C48.3665 86.5397 48.7203 87.0703 49.2509 87.4241C49.2509 87.9547 49.4278 87.9547 49.6046 87.7778ZM52.4347 85.1247C52.9653 84.5941 53.319 84.0634 53.8497 83.7097C54.0265 83.5328 54.0265 83.1791 53.8497 83.0022C53.4959 82.4716 52.9653 82.1178 52.6115 81.5872C52.4347 81.4103 52.2578 81.4103 52.0809 81.5872C51.5503 82.1178 51.1965 82.4716 50.6659 83.0022C50.489 83.1791 50.489 83.3559 50.6659 83.5328C51.0197 84.0635 51.5503 84.4172 51.904 84.9478C52.0809 85.3016 52.2578 85.3016 52.4347 85.1247ZM55.0878 82.2947C55.6184 81.7641 55.9722 81.2334 56.3259 80.7028C56.5028 80.5259 56.5028 80.1722 56.3259 79.9953C55.9722 79.6416 55.6184 79.1109 55.0878 78.7572C54.9109 78.5803 54.734 78.5803 54.5572 78.7572C54.0265 79.2878 53.6728 79.8184 53.1422 80.3491C52.9653 80.5259 52.9653 80.8797 53.1422 81.0566C53.4959 81.5872 54.0265 81.9409 54.3803 82.4716C54.734 82.6484 54.9109 82.4716 55.0878 82.2947ZM57.5641 79.2878C57.9178 78.7572 58.2716 78.2266 58.8022 77.519C58.9791 77.3422 58.9791 76.9884 58.8022 76.8115C58.4484 76.4578 58.0947 76.104 57.7409 75.5734C57.5641 75.3965 57.3872 75.3965 57.2103 75.7503C56.8566 76.2809 56.3259 76.8115 55.9722 77.3422C55.7953 77.519 55.7953 77.8728 55.9722 78.0497C56.3259 78.4034 56.6797 78.9341 57.2103 79.2878C57.0334 79.6416 57.3872 79.6416 57.5641 79.2878ZM59.6866 76.104C60.0403 75.5734 60.3941 74.8659 60.7478 74.1584C60.9247 73.9815 60.9247 73.6278 60.7478 73.4509C60.3941 73.0971 60.0403 72.7434 59.8634 72.3896C59.6866 72.2128 59.5097 72.3896 59.3328 72.5665C58.9791 73.0971 58.6253 73.8047 58.0947 74.3353C57.9178 74.5122 57.9178 74.8659 58.0947 75.0428C58.4484 75.3965 58.8022 75.7503 59.1559 76.2809C59.3328 76.4578 59.5097 76.2809 59.6866 76.104ZM61.6322 72.5665C61.986 71.859 62.1628 71.1515 62.5166 70.444C62.6935 70.2671 62.5166 69.9134 62.5166 69.7365C62.1628 69.3828 61.986 69.2059 61.6322 68.8521C61.4553 68.6753 61.4553 68.8521 61.2784 69.029C60.9247 69.7365 60.5709 70.2671 60.2172 70.9746C60.0403 71.1515 60.0403 71.5053 60.2172 71.6821C60.5709 72.0359 60.9247 72.3896 61.1016 72.7434C61.2785 72.9203 61.4553 72.7434 61.6322 72.5665ZM63.0472 68.4984C63.2241 67.7909 63.401 66.9065 63.5778 66.0221C63.5778 65.6684 63.5778 65.3146 63.5778 65.3146C63.401 65.1377 63.2241 64.9609 63.0472 64.784C63.0472 64.784 62.8703 64.9609 62.8703 65.1377C62.6935 65.8452 62.3397 66.5527 62.1628 67.2602C61.986 67.4371 61.986 67.7909 62.1628 67.9678C62.3397 68.3215 62.6935 68.4984 62.8703 68.8521C62.8703 68.8521 63.0472 68.8521 63.0472 68.4984ZM54.9109 87.7778C55.4415 87.2472 55.7953 86.7166 56.3259 86.186C56.5028 86.0091 56.5028 85.6553 56.3259 85.4785C55.9722 84.9478 55.4415 84.5941 55.0878 84.0635C54.9109 83.8866 54.734 83.8866 54.5572 84.0635C54.0265 84.5941 53.6728 85.1247 53.1422 85.4785C52.9653 85.6553 52.9653 86.0091 53.1422 86.186C53.4959 86.7166 54.0265 87.0703 54.3803 87.601C54.5572 87.9547 54.734 87.9547 54.9109 87.7778ZM57.3872 84.9478C57.7409 84.4172 58.2716 83.8866 58.6253 83.356C58.8022 83.1791 58.8022 82.8253 58.6253 82.6484C58.2716 82.2947 57.7409 81.7641 57.3872 81.4103C57.2103 81.2334 57.0334 81.2334 56.8566 81.4103C56.5028 81.9409 55.9722 82.4716 55.6184 83.0022C55.4416 83.1791 55.4416 83.5328 55.6184 83.7097C55.9722 84.2403 56.5028 84.5941 56.8566 85.1247C57.0334 85.1247 57.2103 85.1247 57.3872 84.9478ZM59.6866 81.7641C60.0403 81.2334 60.3941 80.5259 60.7478 79.9953C60.9247 79.8184 60.9247 79.4647 60.7478 79.2878C60.3941 78.9341 60.0403 78.5803 59.6866 78.0497C59.5097 77.8728 59.3328 78.0497 59.1559 78.2265C58.8022 78.7572 58.4484 79.4647 57.9178 79.9953C57.7409 80.1722 57.7409 80.5259 57.9178 80.7028C58.2716 81.0566 58.6253 81.5872 59.1559 81.9409C59.3328 81.9409 59.5097 81.9409 59.6866 81.7641ZM61.6322 78.2265C61.986 77.519 62.3397 76.9884 62.5166 76.2809C62.6935 76.104 62.6935 75.7503 62.5166 75.5734C62.1628 75.2197 61.8091 74.8659 61.6322 74.5122C61.4553 74.3353 61.2784 74.5122 61.2784 74.689C60.9247 75.3965 60.5709 75.9272 60.2172 76.6347C60.0403 76.8115 60.0403 77.1653 60.2172 77.3422C60.5709 77.6959 60.9247 78.0497 61.2784 78.5803C61.2784 78.5803 61.4553 78.4034 61.6322 78.2265ZM63.2241 74.3353C63.401 73.6278 63.7547 72.9203 63.9316 72.0359C63.9316 71.6821 63.9316 71.5053 63.9316 71.3284C63.5778 70.9746 63.401 70.7978 63.0472 70.444C62.8703 70.2671 62.8703 70.444 62.6935 70.7978C62.5166 71.5053 62.1628 72.2128 61.8091 72.9203C61.6322 73.0972 61.6322 73.4509 61.8091 73.6278C62.1628 73.9815 62.5166 74.3353 62.6935 74.689C63.0472 74.689 63.2241 74.689 63.2241 74.3353ZM64.4622 69.9134C64.6391 69.029 64.6391 68.1446 64.6391 67.2602C64.6391 66.9065 64.6391 66.5527 64.4622 66.5527C64.2853 66.3759 64.1085 66.199 63.9316 66.0221C63.9316 66.0221 63.7547 66.199 63.7547 66.5527C63.5778 67.4371 63.401 68.3215 63.2241 69.029C63.2241 69.3828 63.2241 69.5596 63.2241 69.7365C63.401 70.0903 63.7547 70.2671 63.9316 70.6209C64.2853 70.444 64.2853 70.2671 64.4622 69.9134ZM54.734 93.261C55.2647 92.7304 55.7953 92.3766 56.1491 91.846C56.3259 91.6691 56.3259 91.3154 56.1491 91.1385C55.7953 90.6079 55.2647 90.2541 54.9109 89.7235C54.734 89.5466 54.5572 89.5466 54.3803 89.7235C53.8497 90.2541 53.319 90.6079 52.9653 91.1385C52.7884 91.3154 52.7884 91.4922 52.9653 91.6691C53.4959 92.1997 53.8497 92.7304 54.3803 93.0841C54.2034 93.261 54.5572 93.4379 54.734 93.261ZM57.3872 90.431C57.7409 89.9004 58.2716 89.3697 58.6253 88.8391C58.8022 88.6622 58.8022 88.3085 58.6253 88.1316C58.2716 87.601 57.7409 87.2472 57.3872 86.7166C57.2103 86.5397 57.0334 86.5397 56.8566 86.7166C56.3259 87.2472 55.9722 87.7778 55.4415 88.3085C55.2647 88.4853 55.2647 88.8391 55.4415 89.016C55.7953 89.5466 56.3259 89.9004 56.6797 90.431C56.8566 90.6079 57.2103 90.6079 57.3872 90.431ZM59.6866 87.4241C60.0403 86.8935 60.5709 86.3628 60.9247 85.6553C61.1016 85.4785 61.1016 85.1247 60.9247 84.9478C60.5709 84.5941 60.2172 84.0634 59.6866 83.7097C59.5097 83.5328 59.3328 83.5328 59.1559 83.8866C58.8022 84.4172 58.2716 84.9478 57.9178 85.6553C57.7409 85.8322 57.7409 86.186 57.9178 86.3628C58.2716 86.8935 58.8022 87.2472 59.1559 87.7778C59.3328 87.601 59.5097 87.601 59.6866 87.4241ZM61.8091 84.0635C62.1628 83.3559 62.5166 82.8253 62.8703 82.1178C63.0472 81.9409 63.0472 81.5872 62.8703 81.4103C62.5166 81.0566 62.1628 80.7028 61.8091 80.1722C61.6322 79.9953 61.4553 80.1722 61.2784 80.3491C60.9247 81.0566 60.5709 81.5872 60.2172 82.1178C60.0403 82.2947 60.0403 82.6484 60.2172 82.8253C60.5709 83.1791 60.9247 83.7097 61.4553 84.0635C61.4553 84.2403 61.8091 84.2403 61.8091 84.0635ZM63.5778 80.3491C63.9316 79.6416 64.1085 78.9341 64.2853 78.2265C64.2853 77.8728 64.2853 77.6959 64.2853 77.519C63.9316 77.1653 63.5778 76.8115 63.401 76.4578C63.2241 76.2809 63.0472 76.4578 63.0472 76.6347C62.6935 77.3422 62.5166 78.0497 62.1628 78.7572C61.986 78.9341 61.986 79.2878 62.1628 79.4647C62.5166 79.8184 62.8703 80.1722 63.2241 80.5259C63.401 80.7028 63.5778 80.5259 63.5778 80.3491ZM64.9928 76.104C65.1697 75.2197 65.3466 74.5122 65.5235 73.6278C65.5235 73.274 65.5235 72.9203 65.3466 72.9203C65.1697 72.5665 64.816 72.3896 64.4622 72.0359C64.2853 71.859 64.2853 72.0359 64.1085 72.3896C63.9316 73.274 63.7547 73.9815 63.401 74.689C63.401 75.0428 63.401 75.2197 63.401 75.3965C63.7547 75.7503 64.1085 76.104 64.2853 76.4578C64.816 76.6347 64.9928 76.4578 64.9928 76.104ZM65.7003 71.3284C65.7003 70.444 65.7003 69.3828 65.7003 68.3215C65.7003 67.9678 65.5235 67.614 65.5235 67.4371C65.3466 67.2602 65.1697 67.0834 64.9928 66.9065C64.9928 66.9065 64.816 67.0834 64.816 67.4371C64.816 68.4984 64.6391 69.3828 64.6391 70.2671C64.6391 70.6209 64.6391 70.9746 64.816 70.9746C64.9928 71.3284 65.3466 71.5053 65.5235 71.859C65.7003 71.859 65.7003 71.6821 65.7003 71.3284ZM57.2103 95.9141C57.7409 95.3835 58.0947 94.8529 58.6253 94.3222C58.8022 94.1454 58.8022 93.7916 58.6253 93.6147C58.2716 93.0841 57.7409 92.7304 57.3872 92.1997C57.2103 92.0229 57.0334 92.0229 56.8566 92.1997C56.3259 92.7304 55.9722 93.261 55.4415 93.6147C55.2647 93.7916 55.2647 94.1454 55.4415 94.3222C55.9722 94.8529 56.3259 95.3835 56.8566 95.7373C56.8566 96.091 57.0334 96.091 57.2103 95.9141ZM59.8634 93.0841C60.2172 92.5535 60.7478 92.0229 61.1016 91.4922C61.2785 91.3154 61.2785 90.9616 61.1016 90.7847C60.7478 90.2541 60.2172 89.9004 59.8634 89.3697C59.6866 89.1928 59.5097 89.1928 59.3328 89.3697C58.9791 89.9004 58.4484 90.431 58.0947 90.9616C57.9178 91.1385 57.9178 91.4922 58.0947 91.6691C58.4484 92.1997 58.9791 92.5535 59.3328 93.0841C59.3328 93.261 59.6866 93.261 59.8634 93.0841ZM64.1085 86.3628C64.4622 85.6553 64.6391 84.9478 64.9928 84.2403C65.1697 84.0635 64.9928 83.7097 64.9928 83.5328C64.6391 83.1791 64.2853 82.8253 63.9316 82.2947C63.7547 82.1178 63.5778 82.2947 63.401 82.4716C63.0472 83.1791 62.6935 83.7097 62.5166 84.4172C62.3397 84.5941 62.3397 84.9478 62.5166 85.1247C62.8703 85.4785 63.2241 86.0091 63.7547 86.3628C63.7547 86.7166 63.9316 86.5397 64.1085 86.3628ZM65.5235 82.4716C65.7003 81.7641 66.0541 81.0566 66.231 80.1722C66.231 79.8184 66.231 79.6416 66.231 79.4647C65.8772 79.1109 65.5235 78.7572 65.3466 78.4034C65.1697 78.2266 64.9928 78.4034 64.9928 78.7572C64.816 79.4647 64.4622 80.1722 64.2853 80.8797C64.1085 81.0566 64.2853 81.4103 64.2853 81.5872C64.6391 81.9409 64.9928 82.2947 65.3466 82.8253C65.3466 82.8253 65.5235 82.6484 65.5235 82.4716ZM66.7616 78.0497C66.9385 77.1653 66.9385 76.2809 67.1154 75.3965C67.1154 75.0428 67.1154 74.689 66.9385 74.5122C66.5847 74.1584 66.4078 73.9815 66.0541 73.6278C65.8772 73.4509 65.8772 73.6278 65.8772 73.9815C65.7003 74.8659 65.5235 75.7503 65.3466 76.4578C65.3466 76.8115 65.3466 77.1653 65.5235 77.1653C65.8772 77.519 66.231 77.8728 66.4078 78.2265C66.5847 78.5803 66.5847 78.4034 66.7616 78.0497ZM67.1154 72.9203C67.1154 71.859 66.9385 70.7978 66.7616 69.5596C66.7616 69.029 66.5847 68.6753 66.5847 68.6753C66.4078 68.4984 66.231 68.3215 66.0541 68.1446C66.0541 68.1446 66.0541 68.3215 66.0541 68.6753C66.231 69.7365 66.231 70.7978 66.231 71.859C66.231 72.2128 66.231 72.5665 66.4078 72.7434C66.5847 73.0971 66.9385 73.274 67.1154 73.6278C67.1154 73.4509 67.1154 73.274 67.1154 72.9203ZM66.0541 66.0221C65.5235 64.6071 64.9928 62.8384 63.9316 60.7158C63.5778 59.8315 63.2241 59.3008 63.2241 59.3008C63.2241 59.3008 63.2241 59.6546 63.2241 60.0083C63.2241 61.0696 63.2241 61.954 63.0472 62.8384C63.0472 63.1921 63.0472 63.369 63.0472 63.5459C63.2241 63.7227 63.401 63.8996 63.5778 64.0765C63.5778 64.0765 63.7547 63.8996 63.7547 63.5459C63.7547 62.4846 63.5778 61.4233 63.401 60.1852C63.2241 59.6546 63.2241 59.3008 63.2241 59.3008C63.2241 59.3008 63.401 59.6546 63.401 60.1852C63.7547 61.4233 63.7547 62.6615 63.9316 63.7227C63.9316 64.0765 63.9316 64.4302 64.1085 64.4302C64.2853 64.6071 64.4622 64.784 64.6391 64.9609C64.6391 64.9609 64.6391 64.784 64.6391 64.2534C64.4622 63.0152 64.2853 61.7771 63.7547 60.1852C63.5778 59.6546 63.401 59.124 63.401 59.124C63.401 59.124 63.5778 59.6546 63.7547 60.1852C64.2853 61.7771 64.6391 63.1921 64.816 64.2534C64.816 64.6071 64.9928 64.9609 64.9928 65.1377C65.1697 65.3146 65.3466 65.4915 65.5235 65.6684C65.5235 65.6684 65.5235 65.4915 65.5235 64.9609C65.1697 63.5459 64.816 62.1308 64.1085 60.3621C63.7547 59.6546 63.5778 59.124 63.5778 59.124C63.5778 59.124 63.9316 59.6546 64.1085 60.3621C64.816 62.1308 65.3466 63.7227 65.7003 65.1377C65.8772 65.6684 65.8772 66.0221 66.0541 66.0221C66.231 66.199 66.4078 66.3759 66.5847 66.5527C66.231 66.9065 66.231 66.5527 66.0541 66.0221ZM49.2509 92.9072C49.7815 92.5535 50.3122 92.0229 50.8428 91.6691C51.0197 91.4922 51.0197 91.3154 50.8428 91.1385C50.3122 90.6079 49.9584 90.0772 49.4278 89.7235C49.2509 89.5466 48.8971 89.5466 48.7203 89.7235C48.1896 90.0772 47.659 90.6079 47.1284 90.9616C46.9515 91.1385 46.9515 91.3154 47.1284 91.4922C47.659 92.0229 48.0128 92.5535 48.5434 93.0841C48.7203 92.9072 49.074 93.0841 49.2509 92.9072Z" fill="white"/>
<path fill-rule="evenodd" clip-rule="evenodd" d="M81.2654 67.2603L100.014 48.6883H84.0954L73.306 59.3009L62.5166 48.6883H60.2172C60.3941 49.2189 60.7478 49.9264 61.1016 50.6339C62.1628 53.464 63.401 57.5321 64.6391 62.4846C68.1766 66.5528 69.7685 72.0359 69.4148 78.9341L73.1291 75.2197L84.6261 86.7166H100.545L82.6804 68.6753L81.2654 67.2603Z" fill="white"/>
</svg>
