<svg width="729" height="713" viewBox="0 0 729 713" fill="none" xmlns="http://www.w3.org/2000/svg">
<path d="M364.373 706.856C558.35 706.856 715.6 553.441 715.6 364.194C715.6 174.947 558.35 21.5322 364.373 21.5322C170.396 21.5322 13.147 174.947 13.147 364.194C13.147 553.441 170.396 706.856 364.373 706.856Z" fill="white"/>
<path d="M364.373 699.213C558.35 699.213 715.6 545.798 715.6 356.551C715.6 167.304 558.35 13.8887 364.373 13.8887C170.396 13.8887 13.147 167.304 13.147 356.551C13.147 545.798 170.396 699.213 364.373 699.213Z" fill="black" stroke="white" stroke-width="25.8556"/>
<path fill-rule="evenodd" clip-rule="evenodd" d="M377.652 236.552C377.652 229.968 372.605 224.63 366.377 224.63C366.377 224.63 366.371 224.63 366.364 224.63C360.143 224.63 355.096 229.968 355.096 236.552C355.096 284.591 355.096 463.754 355.096 511.802C355.096 518.386 360.143 523.724 366.364 523.724C366.371 523.724 366.377 523.724 366.377 523.724C372.605 523.724 377.652 518.386 377.652 511.802C377.652 463.754 377.652 284.591 377.652 236.552V236.552Z" fill="white"/>
<path fill-rule="evenodd" clip-rule="evenodd" d="M332.106 463.393C325.882 463.388 320.83 468.721 320.825 475.305C320.825 475.305 320.825 475.312 320.825 475.319C320.82 481.897 325.863 487.239 332.087 487.244C349.403 487.259 382.359 487.288 399.675 487.304C405.901 487.309 410.953 481.976 410.958 475.399C410.958 475.392 410.958 475.385 410.958 475.385C410.964 468.8 405.92 463.458 399.694 463.453C382.377 463.438 349.422 463.409 332.106 463.393V463.393Z" fill="white"/>
<path fill-rule="evenodd" clip-rule="evenodd" d="M276.382 307.46C270.153 307.455 265.105 312.788 265.1 319.372C265.1 319.372 265.1 319.379 265.1 319.386C265.095 325.964 270.134 331.306 276.363 331.311C311.753 331.342 420.378 331.438 455.768 331.469C461.991 331.474 467.044 326.141 467.05 319.564C467.05 319.557 467.05 319.55 467.05 319.55C467.055 312.965 462.01 307.623 455.786 307.618C420.396 307.587 311.772 307.491 276.382 307.46V307.46Z" fill="white"/>
<path fill-rule="evenodd" clip-rule="evenodd" d="M313.553 247.202C309.146 242.551 302.008 242.56 297.609 247.221C297.609 247.221 297.604 247.226 297.6 247.231C293.206 251.887 293.213 259.435 297.621 264.085C321.896 289.698 394.679 366.492 418.954 392.105C423.362 396.755 430.5 396.746 434.894 392.09C434.899 392.085 434.903 392.08 434.903 392.08C439.302 387.419 439.295 379.872 434.887 375.221C410.612 349.608 337.829 272.815 313.553 247.202V247.202Z" fill="white"/>
<path fill-rule="evenodd" clip-rule="evenodd" d="M297.767 375.426C293.372 380.089 293.385 387.637 297.796 392.285C297.796 392.285 297.801 392.29 297.805 392.295C302.212 396.938 309.35 396.925 313.745 392.261C337.952 366.576 410.529 289.566 434.736 263.88C439.131 259.217 439.119 251.669 434.712 247.026C434.708 247.021 434.703 247.016 434.703 247.016C430.292 242.368 423.154 242.381 418.759 247.044C394.552 272.73 321.974 349.74 297.767 375.426V375.426Z" fill="white"/>
<path d="M364.507 660.807C535.419 660.807 673.971 525.634 673.971 358.889C673.971 192.145 535.419 56.9717 364.507 56.9717C193.595 56.9717 55.0435 192.145 55.0435 358.889C55.0435 525.634 193.595 660.807 364.507 660.807Z" stroke="#F0827D" stroke-width="14.8532"/>
</svg>
