<svg width="512" height="512" viewBox="0 0 512 512" fill="none" xmlns="http://www.w3.org/2000/svg">
<g clip-path="url(#clip0_33_18)">
<rect width="512" height="512" fill="#110042"/>
<g filter="url(#filter0_f_33_18)">
<path d="M564.995 72.565C637.484 266.018 540.469 481.214 348.307 553.219C156.144 625.225 -58.3984 526.772 -130.887 333.32C-203.376 139.867 -106.361 -75.3292 85.8013 -147.335C277.964 -219.34 492.506 -120.888 564.995 72.565Z" fill="url(#paint0_linear_33_18)"/>
</g>
<path d="M256.802 133C280.024 133 298.644 138.856 312.661 150.567C326.887 162.07 334 179.009 334 201.387C334 219.79 327.724 234.639 315.171 245.932C302.828 257.225 286.614 263.081 266.53 263.499L264.648 285.772H203.141L201.258 219.268H227.618C239.961 219.268 249.375 217.908 255.861 215.189C262.556 212.471 265.903 208.079 265.903 202.014C265.903 198.041 264.857 195.008 262.765 192.917C260.882 190.616 258.267 189.466 254.919 189.466C250.735 189.466 247.597 190.825 245.505 193.544C243.622 196.054 242.681 199.4 242.681 203.583H177.094C176.467 190.616 178.977 178.8 184.626 168.134C190.483 157.469 199.479 148.999 211.613 142.725C223.747 136.242 238.81 133 256.802 133ZM234.835 378C222.701 378 212.973 374.758 205.651 368.275C198.329 361.792 194.668 353.636 194.668 343.807C194.668 333.768 198.329 325.507 205.651 319.024C212.973 312.332 222.701 308.986 234.835 308.986C246.76 308.986 256.384 312.332 263.706 319.024C271.028 325.507 274.69 333.768 274.69 343.807C274.69 353.636 271.028 361.792 263.706 368.275C256.384 374.758 246.76 378 234.835 378Z" fill="white"/>
</g>
<defs>
<filter id="filter0_f_33_18" x="-174.396" y="-190.388" width="782.899" height="786.661" filterUnits="userSpaceOnUse" color-interpolation-filters="sRGB">
<feFlood flood-opacity="0" result="BackgroundImageFix"/>
<feBlend mode="normal" in="SourceGraphic" in2="BackgroundImageFix" result="shape"/>
<feGaussianBlur stdDeviation="9.73741" result="effect1_foregroundBlur_33_18"/>
</filter>
<linearGradient id="paint0_linear_33_18" x1="85.8013" y1="-147.335" x2="348.307" y2="553.219" gradientUnits="userSpaceOnUse">
<stop stop-color="#3000E0"/>
<stop offset="1" stop-color="#C57AFF" stop-opacity="0"/>
</linearGradient>
<clipPath id="clip0_33_18">
<rect width="512" height="512" fill="white"/>
</clipPath>
</defs>
</svg>
